<?xml version="1.0" encoding="UTF-8" standalone="no"?>
<!DOCTYPE svg PUBLIC "-//W3C//DTD SVG 1.1//EN"
 "http://www.w3.org/Graphics/SVG/1.1/DTD/svg11.dtd">
<!-- Generated by graphviz version 12.1.1 (20240910.0053)
 -->
<!-- Title: INFRA Pages: 1 -->
<svg width="1448pt" height="512pt"
 viewBox="0.00 0.00 1447.68 512.00" xmlns="http://www.w3.org/2000/svg" xmlns:xlink="http://www.w3.org/1999/xlink">
<g id="graph0" class="graph" transform="scale(1 1) rotate(0) translate(4 508)">
<title>INFRA</title>
<polygon fill="white" stroke="none" points="-4,4 -4,-508 1443.68,-508 1443.68,4 -4,4"/>
<!-- webapp&#45;vpc -->
<g id="node1" class="node">
<title>webapp&#45;vpc</title>
<ellipse fill="#e6e6e6" stroke="black" stroke-width="2" cx="674.6" cy="-36" rx="78.9" ry="36"/>
<text text-anchor="middle" x="674.6" y="-40.2" font-family="Arial" font-size="14.00">webapp&#45;vpc</text>
<text text-anchor="middle" x="674.6" y="-23.4" font-family="Arial" font-size="14.00">(AWS::EC2::VPC)</text>
</g>
<!-- webapp&#45;igw -->
<g id="node2" class="node">
<title>webapp&#45;igw</title>
<ellipse fill="#e6e6e6" stroke="black" stroke-width="2" cx="181.6" cy="-144" rx="124.19" ry="36"/>
<text text-anchor="middle" x="181.6" y="-148.2" font-family="Arial" font-size="14.00">webapp&#45;igw</text>
<text text-anchor="middle" x="181.6" y="-131.4" font-family="Arial" font-size="14.00">(AWS::EC2::InternetGateway)</text>
</g>
<!-- webapp&#45;igw&#45;&gt;webapp&#45;vpc -->
<g id="edge1" class="edge">
<title>webapp&#45;igw&#45;&gt;webapp&#45;vpc</title>
<path fill="none" stroke="black" d="M270.84,-118.7C285.43,-114.96 300.41,-111.26 314.6,-108 408.64,-86.38 517.44,-65.48 590.6,-52.03"/>
<polygon fill="black" stroke="black" points="590.88,-55.53 600.09,-50.29 589.62,-48.65 590.88,-55.53"/>
</g>
<!-- public&#45;subnet&#45;1 -->
<g id="node3" class="node">
<title>public&#45;subnet&#45;1</title>
<ellipse fill="#e6e6e6" stroke="black" stroke-width="2" cx="693.6" cy="-252" rx="88.45" ry="36"/>
<text text-anchor="middle" x="693.6" y="-256.2" font-family="Arial" font-size="14.00">public&#45;subnet&#45;1</text>
<text text-anchor="middle" x="693.6" y="-239.4" font-family="Arial" font-size="14.00">(AWS::EC2::Subnet)</text>
</g>
<!-- public&#45;subnet&#45;1&#45;&gt;webapp&#45;vpc -->
<g id="edge2" class="edge">
<title>public&#45;subnet&#45;1&#45;&gt;webapp&#45;vpc</title>
<path fill="none" stroke="black" d="M690.47,-215.66C687.26,-179.57 682.27,-123.36 678.74,-83.64"/>
<polygon fill="black" stroke="black" points="682.25,-83.55 677.88,-73.9 675.28,-84.17 682.25,-83.55"/>
</g>
<!-- public&#45;subnet&#45;2 -->
<g id="node4" class="node">
<title>public&#45;subnet&#45;2</title>
<ellipse fill="#e6e6e6" stroke="black" stroke-width="2" cx="498.6" cy="-252" rx="88.45" ry="36"/>
<text text-anchor="middle" x="498.6" y="-256.2" font-family="Arial" font-size="14.00">public&#45;subnet&#45;2</text>
<text text-anchor="middle" x="498.6" y="-239.4" font-family="Arial" font-size="14.00">(AWS::EC2::Subnet)</text>
</g>
<!-- public&#45;subnet&#45;2&#45;&gt;webapp&#45;vpc -->
<g id="edge3" class="edge">
<title>public&#45;subnet&#45;2&#45;&gt;webapp&#45;vpc</title>
<path fill="none" stroke="black" d="M567.49,-229.04C592.46,-217.94 618.87,-202.04 636.6,-180 658.6,-152.67 667.94,-113.81 671.87,-83.5"/>
<polygon fill="black" stroke="black" points="675.32,-84.17 672.96,-73.84 668.36,-83.39 675.32,-84.17"/>
</g>
<!-- public&#45;rt -->
<g id="node5" class="node">
<title>public&#45;rt</title>
<ellipse fill="#e6e6e6" stroke="black" stroke-width="2" cx="105.6" cy="-252" rx="105.6" ry="36"/>
<text text-anchor="middle" x="105.6" y="-256.2" font-family="Arial" font-size="14.00">public&#45;rt</text>
<text text-anchor="middle" x="105.6" y="-239.4" font-family="Arial" font-size="14.00">(AWS::EC2::RouteTable)</text>
</g>
<!-- public&#45;rt&#45;&gt;webapp&#45;vpc -->
<g id="edge4" class="edge">
<title>public&#45;rt&#45;&gt;webapp&#45;vpc</title>
<path fill="none" stroke="black" d="M71.34,-217.81C62.15,-206.75 53.43,-193.72 48.6,-180 37.99,-149.81 27.29,-131.87 48.6,-108 83.68,-68.72 420.22,-48.36 584.83,-40.68"/>
<polygon fill="black" stroke="black" points="584.56,-44.2 594.38,-40.24 584.23,-37.21 584.56,-44.2"/>
</g>
<!-- public&#45;rt&#45;&gt;webapp&#45;igw -->
<g id="edge5" class="edge">
<title>public&#45;rt&#45;&gt;webapp&#45;igw</title>
<path fill="none" stroke="black" d="M130.28,-216.58C136.65,-207.7 143.59,-198.01 150.26,-188.72"/>
<polygon fill="black" stroke="black" points="152.93,-191 155.91,-180.84 147.24,-186.92 152.93,-191"/>
</g>
<!-- alb&#45;sg -->
<g id="node6" class="node">
<title>alb&#45;sg</title>
<ellipse fill="#e6e6e6" stroke="black" stroke-width="2" cx="837.6" cy="-144" rx="116.08" ry="36"/>
<text text-anchor="middle" x="837.6" y="-148.2" font-family="Arial" font-size="14.00">alb&#45;sg</text>
<text text-anchor="middle" x="837.6" y="-131.4" font-family="Arial" font-size="14.00">(AWS::EC2::SecurityGroup)</text>
</g>
<!-- alb&#45;sg&#45;&gt;webapp&#45;vpc -->
<g id="edge6" class="edge">
<title>alb&#45;sg&#45;&gt;webapp&#45;vpc</title>
<path fill="none" stroke="black" d="M788.7,-111.2C769.85,-98.94 748.21,-84.87 728.88,-72.3"/>
<polygon fill="black" stroke="black" points="730.86,-69.41 720.57,-66.89 727.05,-75.28 730.86,-69.41"/>
</g>
<!-- web&#45;sg -->
<g id="node7" class="node">
<title>web&#45;sg</title>
<ellipse fill="#e6e6e6" stroke="black" stroke-width="2" cx="1055.6" cy="-252" rx="116.08" ry="36"/>
<text text-anchor="middle" x="1055.6" y="-256.2" font-family="Arial" font-size="14.00">web&#45;sg</text>
<text text-anchor="middle" x="1055.6" y="-239.4" font-family="Arial" font-size="14.00">(AWS::EC2::SecurityGroup)</text>
</g>
<!-- web&#45;sg&#45;&gt;webapp&#45;vpc -->
<g id="edge7" class="edge">
<title>web&#45;sg&#45;&gt;webapp&#45;vpc</title>
<path fill="none" stroke="black" d="M1041.78,-215.78C1027.06,-182.92 1000.62,-135.02 962.6,-108 904.52,-66.71 825.07,-49.31 764.33,-42.04"/>
<polygon fill="black" stroke="black" points="765.05,-38.6 754.72,-40.97 764.27,-45.56 765.05,-38.6"/>
</g>
<!-- web&#45;sg&#45;&gt;alb&#45;sg -->
<g id="edge8" class="edge">
<title>web&#45;sg&#45;&gt;alb&#45;sg</title>
<path fill="none" stroke="black" d="M994.01,-221.05C967.66,-208.24 936.72,-193.19 909.35,-179.88"/>
<polygon fill="black" stroke="black" points="910.93,-176.76 900.41,-175.54 907.87,-183.06 910.93,-176.76"/>
</g>
<!-- webapp&#45;alb -->
<g id="node8" class="node">
<title>webapp&#45;alb</title>
<path fill="#b7e0ff" stroke="black" stroke-width="2" d="M955.69,-396C955.69,-396 669.52,-396 669.52,-396 663.52,-396 657.52,-390 657.52,-384 657.52,-384 657.52,-336 657.52,-336 657.52,-330 663.52,-324 669.52,-324 669.52,-324 955.69,-324 955.69,-324 961.69,-324 967.69,-330 967.69,-336 967.69,-336 967.69,-384 967.69,-384 967.69,-390 961.69,-396 955.69,-396"/>
<text text-anchor="middle" x="812.6" y="-364.2" font-family="Arial" font-size="14.00">webapp&#45;alb</text>
<text text-anchor="middle" x="812.6" y="-347.4" font-family="Arial" font-size="14.00">(AWS::ElasticLoadBalancingV2::LoadBalancer)</text>
</g>
<!-- webapp&#45;alb&#45;&gt;public&#45;subnet&#45;1 -->
<g id="edge10" class="edge">
<title>webapp&#45;alb&#45;&gt;public&#45;subnet&#45;1</title>
<path fill="none" stroke="black" d="M772.98,-323.7C761.88,-313.82 749.74,-303 738.36,-292.87"/>
<polygon fill="black" stroke="black" points="740.77,-290.33 730.98,-286.29 736.11,-295.55 740.77,-290.33"/>
</g>
<!-- webapp&#45;alb&#45;&gt;public&#45;subnet&#45;2 -->
<g id="edge11" class="edge">
<title>webapp&#45;alb&#45;&gt;public&#45;subnet&#45;2</title>
<path fill="none" stroke="black" d="M702.81,-323.51C668.72,-312.33 631.05,-299.81 596.6,-288 589.54,-285.58 582.21,-283.03 574.87,-280.45"/>
<polygon fill="black" stroke="black" points="576.17,-277.2 565.58,-277.17 573.85,-283.8 576.17,-277.2"/>
</g>
<!-- webapp&#45;alb&#45;&gt;alb&#45;sg -->
<g id="edge9" class="edge">
<title>webapp&#45;alb&#45;&gt;alb&#45;sg</title>
<path fill="none" stroke="black" d="M816.73,-323.66C820.95,-287.57 827.51,-231.36 832.16,-191.64"/>
<polygon fill="black" stroke="black" points="835.61,-192.23 833.29,-181.89 828.66,-191.42 835.61,-192.23"/>
</g>
<!-- webapp&#45;tg -->
<g id="node9" class="node">
<title>webapp&#45;tg</title>
<path fill="#b7e0ff" stroke="black" stroke-width="2" d="M615.17,-180C615.17,-180 336.04,-180 336.04,-180 330.04,-180 324.04,-174 324.04,-168 324.04,-168 324.04,-120 324.04,-120 324.04,-114 330.04,-108 336.04,-108 336.04,-108 615.17,-108 615.17,-108 621.17,-108 627.17,-114 627.17,-120 627.17,-120 627.17,-168 627.17,-168 627.17,-174 621.17,-180 615.17,-180"/>
<text text-anchor="middle" x="475.6" y="-148.2" font-family="Arial" font-size="14.00">webapp&#45;tg</text>
<text text-anchor="middle" x="475.6" y="-131.4" font-family="Arial" font-size="14.00">(AWS::ElasticLoadBalancingV2::TargetGroup)</text>
</g>
<!-- webapp&#45;tg&#45;&gt;webapp&#45;vpc -->
<g id="edge12" class="edge">
<title>webapp&#45;tg&#45;&gt;webapp&#45;vpc</title>
<path fill="none" stroke="black" d="M542.14,-107.56C565.27,-95.24 591.07,-81.5 613.71,-69.43"/>
<polygon fill="black" stroke="black" points="615.36,-72.52 622.54,-64.73 612.07,-66.35 615.36,-72.52"/>
</g>
<!-- web&#45;launch&#45;template -->
<g id="node10" class="node">
<title>web&#45;launch&#45;template</title>
<path fill="#b7e0ff" stroke="black" stroke-width="2" d="M1177.75,-396C1177.75,-396 997.46,-396 997.46,-396 991.46,-396 985.46,-390 985.46,-384 985.46,-384 985.46,-336 985.46,-336 985.46,-330 991.46,-324 997.46,-324 997.46,-324 1177.75,-324 1177.75,-324 1183.75,-324 1189.75,-330 1189.75,-336 1189.75,-336 1189.75,-384 1189.75,-384 1189.75,-390 1183.75,-396 1177.75,-396"/>
<text text-anchor="middle" x="1087.6" y="-364.2" font-family="Arial" font-size="14.00">web&#45;launch&#45;template</text>
<text text-anchor="middle" x="1087.6" y="-347.4" font-family="Arial" font-size="14.00">(AWS::EC2::LaunchTemplate)</text>
</g>
<!-- web&#45;launch&#45;template&#45;&gt;web&#45;sg -->
<g id="edge13" class="edge">
<title>web&#45;launch&#45;template&#45;&gt;web&#45;sg</title>
<path fill="none" stroke="black" d="M1076.95,-323.7C1074.57,-315.84 1072.02,-307.38 1069.54,-299.15"/>
<polygon fill="black" stroke="black" points="1072.89,-298.15 1066.65,-289.59 1066.19,-300.18 1072.89,-298.15"/>
</g>
<!-- webapp&#45;asg -->
<g id="node11" class="node">
<title>webapp&#45;asg</title>
<path fill="#b7e0ff" stroke="black" stroke-width="2" d="M617.16,-504C617.16,-504 380.05,-504 380.05,-504 374.05,-504 368.05,-498 368.05,-492 368.05,-492 368.05,-444 368.05,-444 368.05,-438 374.05,-432 380.05,-432 380.05,-432 617.16,-432 617.16,-432 623.16,-432 629.16,-438 629.16,-444 629.16,-444 629.16,-492 629.16,-492 629.16,-498 623.16,-504 617.16,-504"/>
<text text-anchor="middle" x="498.6" y="-472.2" font-family="Arial" font-size="14.00">webapp&#45;asg</text>
<text text-anchor="middle" x="498.6" y="-455.4" font-family="Arial" font-size="14.00">(AWS::AutoScaling::AutoScalingGroup)</text>
</g>
<!-- webapp&#45;asg&#45;&gt;public&#45;subnet&#45;1 -->
<g id="edge15" class="edge">
<title>webapp&#45;asg&#45;&gt;public&#45;subnet&#45;1</title>
<path fill="none" stroke="black" d="M566.91,-431.65C582.48,-421.54 598.11,-409.53 610.6,-396 635.15,-369.42 630.46,-355.31 648.6,-324 653.82,-315.01 659.61,-305.52 665.26,-296.51"/>
<polygon fill="black" stroke="black" points="668.1,-298.57 670.49,-288.25 662.19,-294.83 668.1,-298.57"/>
</g>
<!-- webapp&#45;asg&#45;&gt;public&#45;subnet&#45;2 -->
<g id="edge16" class="edge">
<title>webapp&#45;asg&#45;&gt;public&#45;subnet&#45;2</title>
<path fill="none" stroke="black" d="M419.73,-431.59C406.43,-421.99 394.43,-410.22 386.6,-396 371.18,-367.96 371.18,-352.04 386.6,-324 395.79,-307.31 410.74,-293.99 426.77,-283.6"/>
<polygon fill="black" stroke="black" points="428.26,-286.79 435,-278.61 424.63,-280.8 428.26,-286.79"/>
</g>
<!-- webapp&#45;asg&#45;&gt;webapp&#45;tg -->
<g id="edge17" class="edge">
<title>webapp&#45;asg&#45;&gt;webapp&#45;tg</title>
<path fill="none" stroke="black" d="M405.8,-431.61C391.74,-422.17 379.11,-410.45 370.6,-396 329.41,-326.05 359.67,-285.51 401.6,-216 407.53,-206.18 415.16,-196.81 423.25,-188.28"/>
<polygon fill="black" stroke="black" points="425.48,-191 430.06,-181.44 420.52,-186.06 425.48,-191"/>
</g>
<!-- webapp&#45;asg&#45;&gt;web&#45;launch&#45;template -->
<g id="edge14" class="edge">
<title>webapp&#45;asg&#45;&gt;web&#45;launch&#45;template</title>
<path fill="none" stroke="black" d="M629.48,-453.21C723.31,-442.01 852.67,-423.85 974.27,-396.43"/>
<polygon fill="black" stroke="black" points="974.81,-399.89 983.78,-394.26 973.25,-393.07 974.81,-399.89"/>
</g>
<!-- webapp&#45;database -->
<g id="node12" class="node">
<title>webapp&#45;database</title>
<path fill="#ffcfb3" stroke="black" stroke-width="2" d="M1115.95,-497.45C1115.95,-501.07 1076.8,-504 1028.6,-504 980.4,-504 941.25,-501.07 941.25,-497.45 941.25,-497.45 941.25,-438.55 941.25,-438.55 941.25,-434.93 980.4,-432 1028.6,-432 1076.8,-432 1115.95,-434.93 1115.95,-438.55 1115.95,-438.55 1115.95,-497.45 1115.95,-497.45"/>
<path fill="none" stroke="black" stroke-width="2" d="M1115.95,-497.45C1115.95,-493.84 1076.8,-490.91 1028.6,-490.91 980.4,-490.91 941.25,-493.84 941.25,-497.45"/>
<text text-anchor="middle" x="1028.6" y="-472.2" font-family="Arial" font-size="14.00">webapp&#45;database</text>
<text text-anchor="middle" x="1028.6" y="-455.4" font-family="Arial" font-size="14.00">(AWS::RDS::DBInstance)</text>
</g>
<!-- webapp&#45;db&#45;subnet&#45;group -->
<g id="node13" class="node">
<title>webapp&#45;db&#45;subnet&#45;group</title>
<path fill="#ffcfb3" stroke="black" stroke-width="2" d="M601.13,-389.45C601.13,-393.07 555.18,-396 498.6,-396 442.03,-396 396.07,-393.07 396.07,-389.45 396.07,-389.45 396.07,-330.55 396.07,-330.55 396.07,-326.93 442.03,-324 498.6,-324 555.18,-324 601.13,-326.93 601.13,-330.55 601.13,-330.55 601.13,-389.45 601.13,-389.45"/>
<path fill="none" stroke="black" stroke-width="2" d="M601.13,-389.45C601.13,-385.84 555.18,-382.91 498.6,-382.91 442.03,-382.91 396.07,-385.84 396.07,-389.45"/>
<text text-anchor="middle" x="498.6" y="-364.2" font-family="Arial" font-size="14.00">webapp&#45;db&#45;subnet&#45;group</text>
<text text-anchor="middle" x="498.6" y="-347.4" font-family="Arial" font-size="14.00">(AWS::RDS::DBSubnetGroup)</text>
</g>
<!-- webapp&#45;database&#45;&gt;webapp&#45;db&#45;subnet&#45;group -->
<g id="edge18" class="edge">
<title>webapp&#45;database&#45;&gt;webapp&#45;db&#45;subnet&#45;group</title>
<path fill="none" stroke="black" d="M940.85,-451.75C863.68,-438.06 748.44,-416.96 648.6,-396 636.88,-393.54 624.67,-390.87 612.5,-388.13"/>
<polygon fill="black" stroke="black" points="613.35,-384.74 602.82,-385.95 611.81,-391.57 613.35,-384.74"/>
</g>
<!-- webapp&#45;db&#45;sg -->
<g id="node14" class="node">
<title>webapp&#45;db&#45;sg</title>
<ellipse fill="#e6e6e6" stroke="black" stroke-width="2" cx="1323.6" cy="-360" rx="116.08" ry="36"/>
<text text-anchor="middle" x="1323.6" y="-364.2" font-family="Arial" font-size="14.00">webapp&#45;db&#45;sg</text>
<text text-anchor="middle" x="1323.6" y="-347.4" font-family="Arial" font-size="14.00">(AWS::EC2::SecurityGroup)</text>
</g>
<!-- webapp&#45;database&#45;&gt;webapp&#45;db&#45;sg -->
<g id="edge19" class="edge">
<title>webapp&#45;database&#45;&gt;webapp&#45;db&#45;sg</title>
<path fill="none" stroke="black" d="M1116.31,-435.48C1154.81,-421.65 1199.86,-405.46 1238.1,-391.72"/>
<polygon fill="black" stroke="black" points="1239.05,-395.1 1247.27,-388.43 1236.68,-388.51 1239.05,-395.1"/>
</g>
<!-- webapp&#45;db&#45;subnet&#45;group&#45;&gt;public&#45;subnet&#45;1 -->
<g id="edge20" class="edge">
<title>webapp&#45;db&#45;subnet&#45;group&#45;&gt;public&#45;subnet&#45;1</title>
<path fill="none" stroke="black" d="M562.72,-324.14C584.86,-312.11 609.62,-298.65 631.59,-286.71"/>
<polygon fill="black" stroke="black" points="633.02,-289.92 640.13,-282.07 629.68,-283.77 633.02,-289.92"/>
</g>
<!-- webapp&#45;db&#45;subnet&#45;group&#45;&gt;public&#45;subnet&#45;2 -->
<g id="edge21" class="edge">
<title>webapp&#45;db&#45;subnet&#45;group&#45;&gt;public&#45;subnet&#45;2</title>
<path fill="none" stroke="black" d="M498.6,-323.7C498.6,-315.93 498.6,-307.57 498.6,-299.43"/>
<polygon fill="black" stroke="black" points="502.1,-299.66 498.6,-289.66 495.1,-299.66 502.1,-299.66"/>
</g>
<!-- webapp&#45;db&#45;sg&#45;&gt;webapp&#45;vpc -->
<g id="edge22" class="edge">
<title>webapp&#45;db&#45;sg&#45;&gt;webapp&#45;vpc</title>
<path fill="none" stroke="black" d="M1293.77,-324.99C1266.11,-294.52 1222.97,-249.6 1180.6,-216 1109.29,-159.45 1091.02,-142.02 1006.6,-108 926.98,-75.91 830.5,-57.35 762.11,-47.32"/>
<polygon fill="black" stroke="black" points="762.85,-43.89 752.46,-45.93 761.86,-50.82 762.85,-43.89"/>
</g>
<!-- webapp&#45;db&#45;sg&#45;&gt;web&#45;sg -->
<g id="edge23" class="edge">
<title>webapp&#45;db&#45;sg&#45;&gt;web&#45;sg</title>
<path fill="none" stroke="black" d="M1252.84,-331.01C1217.12,-316.88 1173.62,-299.68 1136.57,-285.02"/>
<polygon fill="black" stroke="black" points="1138.29,-281.94 1127.71,-281.52 1135.72,-288.45 1138.29,-281.94"/>
</g>
</g>
</svg>
